<svg xmlns="http://www.w3.org/2000/svg" width="1925" height="552" viewBox="0 0 1925 552" version="1.1"><path d="M 0 58.500 L 0 117 39.500 117 L 79 117 79 98.500 L 79 80 273 80 L 467 80 467 40 L 467 0 233.500 0 L 0 0 0 58.500 M 0 354 L 0 552 39.500 552 L 79 552 79 394 L 79 236 273 236 L 467 236 467 196 L 467 156 233.500 156 L 0 156 0 354 M 154.246 414.250 L 154.500 551.500 194.250 551.761 L 234 552.023 234 474.011 L 234 396 350.500 396 L 467 396 467 356 L 467 316 350.500 316 L 234 316 234 296.500 L 234 277 193.996 277 L 153.993 277 154.246 414.250" stroke="none" fill="#04acd4" fill-rule="evenodd"/><path d="M 965 205.500 L 965 218 978.500 218 L 992 218 992 205.500 L 992 193 978.500 193 L 965 193 965 205.500 M 535.873 205.684 C 529.756 209.480, 530 206.392, 530 279.904 L 530 347 543 347 L 556 347 556 289 L 556 231 608 231 L 660 231 660 217.500 L 660 204 599.250 204.027 C 544.860 204.050, 538.225 204.224, 535.873 205.684 M 1347.324 205.439 C 1338.208 208.290, 1330.689 215.108, 1326.302 224.500 L 1323.500 230.500 1323.500 276 L 1323.500 321.500 1326.151 327.155 C 1329.423 334.134, 1335.400 340.067, 1342.840 343.721 L 1348.500 346.500 1402.736 346.783 C 1450.137 347.030, 1457.350 346.870, 1459.969 345.516 C 1465.854 342.473, 1466 341.473, 1466 304.185 C 1466 271.306, 1465.936 270.189, 1463.912 267.615 C 1459.471 261.969, 1459.746 262, 1413.550 262 L 1371 262 1371 275.500 L 1371 289 1405.500 289 L 1440 289 1440 305.041 L 1440 321.082 1397.413 320.791 L 1354.825 320.500 1352.413 317.694 L 1350 314.888 1350 275.399 L 1350 235.909 1352.455 233.455 L 1354.909 231 1409.955 231 L 1465 231 1465 217.500 L 1465 204 1408.250 204.067 C 1364.512 204.118, 1350.543 204.433, 1347.324 205.439 M 683 271.951 C 683 307.554, 683.432 311.728, 688.159 321.757 C 692.253 330.441, 699.128 336.975, 709.670 342.201 L 718.343 346.500 756.135 346.795 C 788.828 347.050, 794.333 346.879, 796.946 345.528 C 803.069 342.362, 803 343.007, 803 288.550 L 803 239 790 239 L 777 239 777 280.087 L 777 321.174 751.250 320.825 C 726.901 320.494, 725.272 320.354, 721.308 318.247 C 716.647 315.769, 712.861 311.248, 711.138 306.101 C 710.382 303.843, 710 292.003, 710 270.851 L 710 239 696.500 239 L 683 239 683 271.951 M 851.205 240.894 C 837.381 245.669, 829.283 259.457, 831.368 274.670 C 832.752 284.765, 839.115 293.420, 848.577 298.077 C 853.327 300.415, 854.454 300.518, 880.648 301 C 905.445 301.457, 907.976 301.663, 909.879 303.387 C 915.190 308.201, 913.055 318.058, 906.294 319.935 C 903.968 320.581, 888.862 320.991, 867.250 320.994 L 832 321 832 334.032 L 832 347.064 872.750 346.782 L 913.500 346.500 919.120 343.865 C 930.312 338.617, 936.827 330.099, 939.105 317.732 C 942.170 301.100, 933.760 283.999, 919.148 277.148 C 913.550 274.524, 913.264 274.497, 887.028 274.188 C 870.306 273.991, 860.085 273.485, 859.278 272.815 C 857.488 271.330, 857.683 267.336, 859.582 266.607 C 860.452 266.273, 875.977 266, 894.082 266 L 927 266 927 252.500 L 927 239 891.750 239.033 C 860.249 239.062, 855.937 239.260, 851.205 240.894 M 965 293 L 965 347 978.500 347 L 992 347 992 293 L 992 239 978.500 239 L 965 239 965 293 M 1048.500 240.376 C 1041.770 242.554, 1036.694 245.632, 1032.355 250.167 C 1023.240 259.693, 1021.539 267.838, 1022.261 298.500 C 1022.807 321.708, 1023.483 324.978, 1029.419 333.081 C 1031.264 335.600, 1034.954 339.106, 1037.617 340.870 C 1046.514 346.763, 1049.291 347.112, 1084.669 346.790 L 1116.549 346.500 1123.167 343.240 C 1130.874 339.444, 1136.165 334.017, 1139.858 326.120 C 1142.413 320.655, 1142.495 319.870, 1142.840 297.583 C 1143.073 282.504, 1142.787 272.597, 1142.004 268.616 C 1139.604 256.415, 1132.564 247.032, 1122.148 242.148 L 1116.500 239.500 1084.500 239.291 C 1060.555 239.134, 1051.493 239.407, 1048.500 240.376 M 1179.418 239.969 C 1178.274 240.432, 1176.136 242.238, 1174.668 243.982 L 1172 247.153 1172 297.077 L 1172 347 1185.500 347 L 1199 347 1199 306.453 L 1199 265.905 1224.750 266.203 C 1254.647 266.548, 1256.172 266.934, 1261.500 275.510 L 1264.500 280.339 1264.788 313.669 L 1265.077 347 1278.538 347 L 1292 347 1292 314.049 C 1292 293.857, 1291.572 279.047, 1290.895 275.799 C 1287.315 258.632, 1274.079 245.121, 1256.307 240.492 C 1251.739 239.302, 1243.589 239.013, 1216.040 239.063 C 1197.043 239.098, 1180.563 239.506, 1179.418 239.969 M 1521.500 241.038 C 1509.865 244.771, 1500.492 254.814, 1498.060 266.154 C 1497.419 269.146, 1497 286.082, 1497 309.049 L 1497 347 1510.500 347 L 1524 347 1524 309.950 C 1524 271.054, 1524.294 268.252, 1528.545 266.621 C 1529.435 266.280, 1544.302 266, 1561.582 266 L 1593 266 1593 252.500 L 1593 239 1560.250 239.056 C 1530.763 239.107, 1526.902 239.304, 1521.500 241.038 M 1627 251.397 L 1627 263.893 1658.083 264.197 L 1689.167 264.500 1692.083 267.766 L 1695 271.032 1695 292.565 C 1695 316.564, 1694.487 318.937, 1688.881 320.892 C 1683.776 322.671, 1637.837 322.377, 1633.432 320.536 C 1626.639 317.698, 1625.419 308.350, 1631.206 303.480 L 1634.153 301 1659.577 301 L 1685 301 1685 288 L 1685 275 1658.682 275 C 1637.576 275, 1631.306 275.314, 1627.028 276.584 C 1616.881 279.598, 1609.867 285.794, 1605.101 295.954 C 1602.817 300.824, 1602.500 302.779, 1602.500 312 C 1602.500 321.554, 1602.751 322.976, 1605.284 327.784 C 1608.999 334.834, 1614.971 340.626, 1621.852 343.852 L 1627.500 346.500 1662 346.500 L 1696.500 346.500 1701.608 343.805 C 1708.227 340.313, 1715.292 332.390, 1718.196 325.202 C 1720.404 319.739, 1720.500 318.370, 1720.500 292.500 L 1720.500 265.500 1717.865 259.880 C 1714.159 251.978, 1708.869 246.554, 1701.167 242.760 L 1694.549 239.500 1660.774 239.201 L 1627 238.901 1627 251.397 M 1758.418 239.941 C 1757.274 240.419, 1755.136 242.238, 1753.668 243.982 L 1751 247.153 1751 297.077 L 1751 347 1764.500 347 L 1778 347 1778 306.500 L 1778 266 1795.953 266 C 1815.091 266, 1818.028 266.571, 1819.890 270.657 C 1820.639 272.303, 1821 285.095, 1821 310.047 L 1821 347 1834.552 347 L 1848.105 347 1847.802 306.499 L 1847.500 265.999 1860.795 265.999 C 1873.578 266, 1874.186 266.095, 1876.545 268.455 L 1879 270.909 1879 308.955 L 1879 347 1892.542 347 L 1906.084 347 1905.792 306.250 L 1905.500 265.500 1902.865 259.880 C 1899.145 251.947, 1893.842 246.517, 1886.127 242.742 L 1879.500 239.500 1856.750 239.168 L 1834 238.836 1834 242.366 L 1834 245.895 1827.250 242.697 L 1820.500 239.500 1790.500 239.285 C 1774 239.167, 1759.563 239.462, 1758.418 239.941 M 566 275.500 L 566 289 607.500 289 L 649 289 649 275.500 L 649 262 607.500 262 L 566 262 566 275.500 M 1052.306 268.412 L 1049.500 270.823 1049.178 291.271 C 1048.797 315.457, 1049.416 318.189, 1055.670 319.925 C 1057.879 320.539, 1069.567 320.991, 1083.282 320.994 C 1109.429 321.001, 1113.155 320.353, 1115.006 315.483 C 1116.442 311.706, 1116.297 273.427, 1114.837 270.684 C 1112.418 266.143, 1111.881 266.065, 1082.806 266.032 L 1055.112 266 1052.306 268.412" stroke="none" fill="#fcfcfc" fill-rule="evenodd"/></svg>